# xmcd
#
# Track frame offsets: 
#        300
#        8021
#        19217
#        32580
#        43820
#        52677
#        57654
#        67158
#        81094
#        90988
#
# Disc length: 1393 seconds
#
# Revision: 0
# Processed by: cddbd v1.5.1PL2 Copyright (c) Steve Scherf et al.
# Submitted via: ExactAudioCopy v0.95b3
#
DISCID=79056d0a
DTITLE=Merle Haggard - Momma Tried
DYEAR=1900
DGENRE=Country
TTITLE0=I'm A Lonesome Fugitive
TTITLE1=Momma Tried
TTITLE2=Blue Yodel
TTITLE3=Silver Wings
TTITLE4=Hobo Bill
TTITLE5=Swinging Doors
TTITLE6=Today I Started Loving You Again
TTITLE7=Soldier's Letter
TTITLE8=I Can't Be Myself
TTITLE9=Roght Or Wrong
EXTD=
EXTT0=
EXTT1=
EXTT2=
EXTT3=
EXTT4=
EXTT5=
EXTT6=
EXTT7=
EXTT8=
EXTT9=
PLAYORDER=
